<?xml version="1.0" standalone="no"?>
<!DOCTYPE svg PUBLIC "-//W3C//DTD SVG 20010904//EN"
 "http://www.w3.org/TR/2001/REC-SVG-20010904/DTD/svg10.dtd">
<svg version="1.0" xmlns="http://www.w3.org/2000/svg"
 width="500.000000pt" height="500.000000pt" viewBox="0 0 500.000000 500.000000"
 preserveAspectRatio="xMidYMid meet">
<metadata>
Created by potrace 1.14, written by Peter Selinger 2001-2017
</metadata>
<g transform="translate(0.000000,500.000000) scale(0.100000,-0.100000)"
fill="#000000" stroke="none">
<path d="M0 2500 l0 -2500 2500 0 2500 0 0 2500 0 2500 -2500 0 -2500 0 0
-2500z m2820 2005 c874 -148 1543 -823 1680 -1695 27 -172 27 -447 0 -620
-178 -1152 -1291 -1919 -2430 -1674 -706 152 -1273 659 -1499 1342 -85 255
-96 333 -96 647 0 256 2 277 28 398 119 556 442 1019 922 1324 222 141 526
251 780 282 50 6 101 13 115 15 57 10 410 -3 500 -19z"/>
<path d="M2425 4090 c-284 -28 -514 -150 -599 -318 -75 -149 -75 -331 0 -473
46 -88 197 -229 384 -359 198 -137 240 -177 240 -223 0 -36 -15 -57 -41 -57
-9 0 -67 34 -129 75 -132 87 -189 109 -268 103 -111 -9 -203 -74 -250 -177
-22 -47 -26 -70 -26 -141 1 -152 68 -287 207 -416 91 -84 190 -142 315 -185
95 -33 101 -33 257 -33 203 2 290 18 411 79 219 110 333 304 321 550 -13 293
-173 475 -652 740 -165 92 -217 125 -268 174 -101 95 -103 205 -4 259 28 15
62 17 247 17 192 0 219 2 254 19 50 25 76 68 76 129 0 166 -197 264 -475 237z"/>
</g>
</svg>
